<?xml version="1.0" encoding="UTF-8"?>
<svg version="1.1" xmlns="http://www.w3.org/2000/svg" width="512" height="512">
<path d="M0 0 C8.53504666 2.70447864 14.97906687 7.59734217 20 15 C21.38922991 17.97115945 22 19.69953119 22 23 C38.5 23 55 23 72 23 C72.33 21.35 72.66 19.7 73 18 C76.33114954 10.70864263 82.22106058 4.50111597 89.5 1.0625 C97.07371689 -1.33709347 107.6213791 -1.41461313 115 1.5625 C122.4368968 5.58667169 129.17324031 11.55135313 131.90234375 19.69140625 C133.72682712 26.27468034 134.15181174 32.20220778 134 39 C134.63687744 39.35602295 135.27375488 39.7120459 135.92993164 40.07885742 C148.40328589 47.05336195 160.86695615 54.04384933 173.30175781 61.08691406 C178.40821767 63.97699796 183.52157505 66.8540877 188.64453125 69.71484375 C189.75699219 70.33617188 190.86945313 70.9575 192.015625 71.59765625 C194.14374327 72.78526728 196.27259712 73.97156161 198.40234375 75.15625 C199.86800781 75.97416016 199.86800781 75.97416016 201.36328125 76.80859375 C202.3063916 77.33179199 203.24950195 77.85499023 204.22119141 78.39404297 C206.10337843 79.48181544 207.95499551 80.62394832 209.77490234 81.81298828 C210.64711426 82.38130371 211.51932617 82.94961914 212.41796875 83.53515625 C213.18262451 84.05601807 213.94728027 84.57687988 214.73510742 85.11352539 C217.02851141 86.27226982 217.02851141 86.27226982 219.6027832 85.27905273 C222.14823159 83.97604568 222.14823159 83.97604568 224.9375 82 C232.17553267 77.27312152 239.59755179 77.26733619 248 78 C257.0594635 80.0725074 263.95088 85.49936778 268.9375 93.25 C270.28763677 95.5383674 271.15106858 97.45320575 272 100 C283.55 100 295.1 100 307 100 C305.68 98.35 304.36 96.7 303 95 C302.4375069 90.99223665 302.31842782 88.95924973 304.6875 85.625 C307.33710827 83.76311311 308.75713747 83.07721101 312 83 C317.32634156 85.10210952 320.43243279 88.18190578 324.125 92.375 C324.63675781 92.93960938 325.14851563 93.50421875 325.67578125 94.0859375 C327.1364513 95.70806979 328.56990661 97.35092275 330 99 C330.76441406 99.85464844 331.52882813 100.70929688 332.31640625 101.58984375 C334.80970224 105.15913291 334.86342352 107.8325705 334.703125 112.09765625 C333.33438003 117.74753132 329.11696034 121.13724956 325 125 C323.35238187 126.68575743 321.70645801 128.37317302 320.0625 130.0625 C315.31738954 134.82434806 315.31738954 134.82434806 311.1875 135.375 C308 135 308 135 305.125 132.875 C303 130 303 130 302.375 127.0625 C303 124 303 124 308 118 C296.12 118 284.24 118 272 118 C270.02 121.96 268.04 125.92 266 130 C259.23737387 137.14541629 251.06914067 140.58853284 241.3125 141.25 C233.32165776 141.12938351 226.73415511 137.98938932 220 134 C219.23816406 134.83402344 218.47632813 135.66804687 217.69140625 136.52734375 C216.6489527 137.66453499 215.60594448 138.80121793 214.5625 139.9375 C214.01843506 140.52998535 213.47437012 141.1224707 212.91381836 141.73291016 C209.07645734 145.88953511 205.13387775 149.9033996 201.03515625 153.8046875 C198.36994467 156.67963742 196.23240565 159.77757098 194 163 C201.01251443 174.81639412 208.09809796 186.58528332 215.50463867 198.16015625 C218.49829956 202.86016946 221.33202388 207.52463196 223.80078125 212.5234375 C227.38328544 220.56635719 227.38328544 220.56635719 233.99462891 225.69873047 C239.05540985 226.38868247 243.96362815 225.60679179 249 225 C256.35351541 225.82213216 262.40651094 231.55225686 267 237 C268.65 240.3 270.3 243.6 272 247 C283.88 247 295.76 247 308 247 C306.35 245.02 304.7 243.04 303 241 C302.375 237.9375 302.375 237.9375 303 235 C305.37366458 231.78857145 306.93442268 230.28415395 310.8125 229.25 C315.74145361 230.40975379 318.46809097 233.5000829 322 237 C323.19109375 238.13501953 323.19109375 238.13501953 324.40625 239.29296875 C334.39681874 248.97538683 334.39681874 248.97538683 334.5625 255.8125 C334.32416348 261.80622199 332.02086377 264.74745077 328 269 C327.56010742 269.49387207 327.12021484 269.98774414 326.66699219 270.49658203 C325.17680131 272.16717496 323.65676687 273.80499704 322.125 275.4375 C321.64385742 275.97036621 321.16271484 276.50323242 320.66699219 277.05224609 C317.88664455 279.89808965 315.78576742 281.34809069 311.8046875 281.9765625 C308 282 308 282 305 279.9375 C303 277 303 277 302.375 274.0625 C303 271 303 271 308 265 C296.12 265 284.24 265 272 265 C270.35 268.3 268.7 271.6 267 275 C262.2184696 280.48990527 256.55149082 285.96731749 249 287 C247.80632812 286.76539063 246.61265625 286.53078125 245.3828125 286.2890625 C240.68128733 285.43605723 236.46821222 285.03549321 232 287 C226.47288619 292.37248957 223.26843017 299.86549442 219.78857422 306.64111328 C216.79865041 312.25609714 213.35676716 317.57716049 209.9375 322.9375 C208.15241616 325.78063484 206.37145094 328.62618698 204.59716797 331.47607422 C203.5641328 333.10852875 202.50717733 334.72619274 201.42236328 336.32470703 C200.95427246 337.02321777 200.48618164 337.72172852 200.00390625 338.44140625 C199.59084229 339.03767822 199.17777832 339.6339502 198.75219727 340.24829102 C197.8304423 342.00005961 197.8304423 342.00005961 198.2199707 344.05151367 C199.51536271 347.28735831 202.13863299 349.39803121 204.625 351.75 C205.72846856 352.82095623 206.83003922 353.89387151 207.9296875 354.96875 C208.46174805 355.48824219 208.99380859 356.00773437 209.54199219 356.54296875 C211.94681208 358.94617791 214.1305701 361.52197869 216.33203125 364.109375 C219.38518992 367.57009817 222.69969181 370.77684187 226 374 C227.051875 373.67515625 227.051875 373.67515625 228.125 373.34375 C238.80373604 370.20977312 247.28203371 370.12237442 257.42578125 375.21875 C265.01321969 379.80946906 268.75560577 385.88901443 272 394 C283.88 394 295.76 394 308 394 C306.35 392.02 304.7 390.04 303 388 C302.29325792 384.15218203 302.6963966 382.55863025 304.5625 379.125 C307 377 307 377 310.25 376.25 C315.64551589 377.32910318 318.20204986 380.16820004 322 384 C322.87785156 384.85335938 323.75570313 385.70671875 324.66015625 386.5859375 C334.29367723 396.03926312 334.29367723 396.03926312 334.5625 402.1875 C334.41241281 408.92376621 331.65716618 411.50856928 327 416 C324.53631332 418.88873166 322.07849897 421.78229891 319.625 424.6796875 C316.48807215 427.45250765 314.09935921 428.2743663 310 429 C304.47727273 426.95454545 304.47727273 426.95454545 303 424 C302.42198405 417.87303089 302.86279413 417.17150734 307 412 C295.45 412 283.9 412 272 412 C270.35 415.3 268.7 418.6 267 422 C261.77003973 428.11806673 256.0398453 432.45554139 248 434 C237.60849447 434.79833985 229.42987672 433.90951124 220.875 427.75 C220.25625 427.1725 219.6375 426.595 219 426 C215.13079644 427.45328674 211.59107217 429.23714253 207.9765625 431.23828125 C207.40265778 431.55513382 206.82875305 431.87198639 206.23745728 432.19844055 C204.36495661 433.23345525 202.49491955 434.27283043 200.625 435.3125 C199.31355001 436.03903233 198.0020257 436.76543053 196.69042969 437.49169922 C187.01325046 442.85622249 177.37297192 448.28495927 167.75 453.74609375 C163.54976376 456.12784536 159.34029065 458.49267588 155.125 460.84765625 C153.97870117 461.48815918 152.83240234 462.12866211 151.65136719 462.78857422 C149.42862405 464.02949413 147.20533949 465.26944488 144.98144531 466.50830078 C143.98209961 467.06630371 142.98275391 467.62430664 141.953125 468.19921875 C141.06786133 468.69252686 140.18259766 469.18583496 139.27050781 469.6940918 C137.47280884 470.72805866 135.72553853 471.84964098 134 473 C133.64667163 476.38451388 133.5635854 479.66151738 133.56054688 483.05859375 C133.46742063 486.54601113 133.28965269 488.60943606 131.18359375 491.44921875 C129 493 129 493 125.5 493.9375 C121.35647234 495.19535661 120.49868791 496.58512653 118 500 C117.13375 500.474375 116.2675 500.94875 115.375 501.4375 C112.22166875 503.51206004 112.03446147 505.45327498 111 509 C109.84765625 510.65234375 109.84765625 510.65234375 108 512 C98.25455638 513.67398432 90.02858366 511.62239093 82 506 C77.56199085 502.02000603 74.20463264 497.57642373 72 492 C72 491.01 72 490.02 72 489 C55.83 489.33 39.66 489.66 23 490 C21.35 493.3 19.7 496.6 18 500 C12.28533043 506.68508515 5.61338631 511.48614424 -3.37109375 512.30859375 C-13.89013437 512.76679228 -21.84808724 511.2252181 -30.15234375 504.171875 C-34.57242668 499.57424117 -37.66292354 494.25683218 -39 488 C-38.92032923 484.39091428 -38.7035409 480.88009318 -38.26171875 477.296875 C-39.12174644 473.45632805 -39.68770955 473.10567062 -42.81640625 470.9609375 C-44.5268279 469.94402961 -46.25613346 468.95842234 -48 468 C-48.87551514 467.50693359 -49.75103027 467.01386719 -50.65307617 466.50585938 C-53.50257901 464.93028481 -56.37269446 463.39916258 -59.25 461.875 C-67.89495267 457.24460398 -76.45968305 452.50478223 -84.95800781 447.61108398 C-93.17955257 442.88080524 -101.45544544 438.24999786 -109.73999023 433.63110352 C-110.74360596 433.07092529 -111.74722168 432.51074707 -112.78125 431.93359375 C-113.66876953 431.43915771 -114.55628906 430.94472168 -115.47070312 430.43530273 C-117.24227919 429.42998462 -118.98437566 428.37174325 -120.70141602 427.27587891 C-121.45994873 426.85483887 -122.21848145 426.43379883 -123 426 C-125.08823806 426.5820547 -125.08823806 426.5820547 -127 428 C-128.68686322 428.85542353 -130.37439246 429.70953465 -132.0625 430.5625 C-132.91972656 430.99691406 -133.77695313 431.43132812 -134.66015625 431.87890625 C-141.47458818 435.14391788 -149.56824728 435.00364386 -156.86328125 433.3515625 C-165.24818583 430.30013533 -171.03161046 425.25689974 -175.5 417.5625 C-179.26012071 409.37447757 -179.41878002 400.62496118 -177.2265625 391.93359375 C-174.03599934 383.37012224 -168.9577905 378.33382018 -161 374 C-150.94131072 369.83349501 -143.11202921 370.37245049 -133 374 C-132.34 374.33 -131.68 374.66 -131 375 C-130.73662842 374.40993164 -130.47325684 373.81986328 -130.2019043 373.21191406 C-128.94798348 370.90427185 -127.64804739 369.43272606 -125.76953125 367.609375 C-124.81687378 366.67424072 -124.81687378 366.67424072 -123.8449707 365.72021484 C-123.17425537 365.07004395 -122.50354004 364.41987305 -121.8125 363.75 C-115.09220646 357.13713567 -108.87665654 350.37413433 -103 343 C-103.680625 341.93007813 -104.36125 340.86015625 -105.0625 339.7578125 C-111.90256629 328.97879907 -118.63511906 318.13689159 -125.30273438 307.25048828 C-126.57589309 305.17405763 -127.85757849 303.10282692 -129.1484375 301.03735352 C-130.39909385 298.9857428 -131.59637195 296.90077351 -132.7421875 294.78881836 C-135.42938848 289.5350231 -135.42938848 289.5350231 -139.99633789 286.20556641 C-142.22028553 286.05745913 -144.17213643 286.23337064 -146.375 286.5625 C-147.88056018 286.67271031 -149.38718947 286.76923077 -150.89453125 286.8515625 C-151.60689941 286.89442383 -152.31926758 286.93728516 -153.05322266 286.98144531 C-159.98714985 287.0475324 -165.45837914 282.28619818 -170.27734375 277.79296875 C-177.03605682 270.75838984 -178.41390806 263.45254616 -178.36352539 254.04492188 C-178.10775927 244.14165783 -174.02076303 237.74543899 -167 231 C-163.15762861 228.02020178 -159.72029222 226.15780752 -155 225 C-153.06063383 225.33292118 -151.12132944 225.6683912 -149.19067383 226.04858398 C-145.14056281 226.66978376 -141.78386938 226.7097299 -138 225 C-132.16055404 219.3027392 -128.59502637 211.52070027 -124.82177734 204.38330078 C-121.96786137 199.08317111 -118.78943334 193.99343237 -115.625 188.875 C-114.47975875 186.98089786 -113.33520444 185.08638017 -112.19140625 183.19140625 C-110.21699246 179.94768416 -108.19875434 176.74774614 -106.08984375 173.58984375 C-105.65784668 172.94096191 -105.22584961 172.29208008 -104.78076172 171.62353516 C-103.65883765 169.95571296 -102.5196548 168.29953495 -101.37890625 166.64453125 C-99.80189057 164.20862831 -99.80189057 164.20862831 -100.19067383 162.07397461 C-101.20855646 159.4655544 -102.55887994 158.11627612 -104.5703125 156.171875 C-105.3025 155.45386719 -106.0346875 154.73585937 -106.7890625 153.99609375 C-107.55992188 153.25488281 -108.33078125 152.51367188 -109.125 151.75 C-110.63009492 150.28901993 -112.13272116 148.82549214 -113.6328125 147.359375 C-114.36661133 146.64330078 -115.10041016 145.92722656 -115.85644531 145.18945312 C-118.57549008 142.41218735 -121.04973854 139.46736267 -123.48779297 136.44238281 C-125.01350873 134.6548983 -125.01350873 134.6548983 -128 135 C-130.53849227 136.16598543 -132.96868644 137.48778126 -135.4296875 138.80859375 C-143.09822787 142.36316034 -150.88087363 141.46859578 -158.67578125 138.9140625 C-167.12302323 135.59195389 -172.91386596 128.90509777 -177 121 C-179.82711486 112.80676903 -179.11056095 102.17721195 -175.5 94.4375 C-171.03910426 86.7560043 -165.2417589 81.64745586 -156.8359375 78.66015625 C-147.47558752 76.48123181 -138.40361594 77.29778768 -130 82 C-126.875 84.25 -126.875 84.25 -125 86 C-121.52450785 84.67108972 -118.27128126 83.15371762 -115 81.3828125 C-114.0416626 80.86468994 -113.0833252 80.34656738 -112.09594727 79.81274414 C-111.07428467 79.25578857 -110.05262207 78.69883301 -109 78.125 C-107.93128662 77.54419678 -106.86257324 76.96339355 -105.76147461 76.36499023 C-98.13193078 72.20244492 -90.56368379 67.94210105 -83.03198242 63.60546875 C-74.96255343 58.9607534 -66.8375737 54.41793368 -58.69946289 49.89477539 C-48.26504072 44.75579222 -48.26504072 44.75579222 -39 38 C-39.00918232 34.53367232 -39.13344523 31.07727561 -39.2578125 27.61328125 C-38.97312359 23.62332309 -38.23143711 21.30988221 -36 18 C-34.01953125 17.22265625 -34.01953125 17.22265625 -31.8125 17.0625 C-26.75051738 16.29327715 -24.20397 13.9998895 -20.62890625 10.4609375 C-19 9 -19 9 -17 9 C-16.8453125 7.329375 -16.8453125 7.329375 -16.6875 5.625 C-16.3471875 3.830625 -16.3471875 3.830625 -16 2 C-11.03438383 -1.31041078 -5.78928987 -0.70616613 0 0 Z M23 39 C19.78434096 44.20248189 19.78434096 44.20248189 20.10742188 47.13793945 C21.20508337 49.42783667 22.52247577 50.95842548 24.28125 52.79296875 C25.29155273 53.85656616 25.29155273 53.85656616 26.32226562 54.94165039 C27.40024414 56.05334595 27.40024414 56.05334595 28.5 57.1875 C29.22380859 57.94474365 29.94761719 58.7019873 30.69335938 59.48217773 C35.72199 64.72746265 40.79700966 69.92708442 46 75 C46.9590625 74.03900391 46.9590625 74.03900391 47.9375 73.05859375 C50.36810653 70.62713137 52.80856727 68.20574488 55.25 65.78515625 C56.8333941 64.21099862 58.41672585 62.63677827 60 61.0625 C60.7940625 60.27681641 61.588125 59.49113281 62.40625 58.68164062 C64.62403347 56.47309792 66.81257417 54.23852898 69 52 C69.57621094 51.45327637 70.15242188 50.90655273 70.74609375 50.34326172 C72.40009099 48.75711441 72.40009099 48.75711441 74 46 C73.34 43.69 72.68 41.38 72 39 C55.83 39 39.66 39 23 39 Z M-39.85546875 57.60546875 C-40.85835938 58.17007813 -41.86125 58.7346875 -42.89453125 59.31640625 C-43.98121094 59.93386719 -45.06789063 60.55132812 -46.1875 61.1875 C-47.3115625 61.82171875 -48.435625 62.4559375 -49.59375 63.109375 C-51.92998814 64.4282614 -54.26535776 65.74853204 -56.59912109 67.07177734 C-59.6961656 68.82773266 -62.79489332 70.58065922 -65.89453125 72.33203125 C-68.69628882 73.91511647 -71.49774076 75.49872036 -74.29785156 77.0847168 C-79.42802894 79.98913336 -84.56627251 82.87829871 -89.71484375 85.75 C-90.83632812 86.37583984 -91.9578125 87.00167969 -93.11328125 87.64648438 C-95.26723646 88.84748525 -97.42212695 90.04681086 -99.578125 91.24414062 C-101.51383312 92.32362137 -103.44376198 93.41355559 -105.36669922 94.515625 C-107.05256936 95.46593934 -108.76177662 96.37664215 -110.49658203 97.234375 C-111.23118652 97.62109375 -111.96579102 98.0078125 -112.72265625 98.40625 C-113.67990601 98.87514648 -113.67990601 98.87514648 -114.65649414 99.35351562 C-116.97812171 102.19870122 -116.18982339 105.44335683 -116 109 C-110.39835867 110.45608414 -104.79336218 111.89814084 -99.18481445 113.32739258 C-97.27790579 113.81542505 -95.37196527 114.30725691 -93.46704102 114.80297852 C-90.72658854 115.5154247 -87.98292933 116.21407339 -85.23828125 116.91015625 C-84.38913651 117.13405533 -83.53999176 117.35795441 -82.66511536 117.58863831 C-76.8199563 119.12922536 -76.8199563 119.12922536 -71 118 C-69.50040274 116.58107079 -69.50040274 116.58107079 -68.44921875 114.66015625 C-68.00626465 113.93997314 -67.56331055 113.21979004 -67.10693359 112.4777832 C-66.63852051 111.68073975 -66.17010742 110.88369629 -65.6875 110.0625 C-65.18041504 109.23000732 -64.67333008 108.39751465 -64.15087891 107.53979492 C-63.03131005 105.70026387 -61.91836643 103.85668912 -60.81103516 102.00976562 C-58.22388491 97.71017163 -55.58446248 93.44336005 -52.94848633 89.17358398 C-50.89475001 85.84451441 -48.84930457 82.51045728 -46.8046875 79.17578125 C-44.47789482 75.38791161 -42.13484356 71.61201344 -39.7578125 67.85546875 C-39.2848877 67.10740967 -38.81196289 66.35935059 -38.32470703 65.58862305 C-37.46764466 64.23732032 -36.60688126 62.88835483 -35.74169922 61.54223633 C-33.65882315 58.51072893 -33.65882315 58.51072893 -33 55 C-35.82203231 55 -37.40039807 56.21656466 -39.85546875 57.60546875 Z M127 55 C128.31941002 58.54665291 129.88886841 61.63088664 131.9140625 64.82421875 C132.5026001 65.75806396 133.0911377 66.69190918 133.69750977 67.65405273 C134.33358154 68.65509033 134.96965332 69.65612793 135.625 70.6875 C136.98138155 72.8379662 138.33681643 74.98902973 139.69140625 77.140625 C140.04196579 77.69672958 140.39252533 78.25283417 140.75370789 78.82579041 C143.30837781 82.88370651 145.83252414 86.95955156 148.33984375 91.046875 C148.6946582 91.62520584 149.04947266 92.20353668 149.41503906 92.7993927 C151.12693182 95.59159399 152.83612082 98.38543017 154.54345703 101.18041992 C158.23795914 107.20881704 162.02237725 113.15414189 166 119 C171.70336852 118.38852225 177.10497075 117.35981218 182.65625 115.93359375 C183.44398804 115.73524429 184.23172607 115.53689484 185.04333496 115.33253479 C187.53004228 114.70531307 190.01502006 114.07152681 192.5 113.4375 C194.19780613 113.00802633 195.89572187 112.57898574 197.59375 112.15039062 C201.73044998 111.10525984 205.86561337 110.05424318 210 109 C210.33 106.36 210.66 103.72 211 101 C210.2471875 100.58862793 209.494375 100.17725586 208.71875 99.75341797 C195.62095601 92.58658803 182.54880323 85.39864665 169.6875 77.8125 C158.7411203 71.35623235 147.60811413 65.28118677 136.38989258 59.31176758 C134.67166237 58.36866298 132.98406765 57.36893957 131.3190918 56.3347168 C129.15705684 54.83372697 129.15705684 54.83372697 127 55 Z M81.6875 60.23828125 C80.78416497 61.25641405 79.88882843 62.28167868 79 63.3125 C74.33528153 68.5822393 69.47822406 73.54822013 64.41015625 78.4296875 C61.85620178 81.15335369 59.98099405 83.84695611 58 87 C58.78503906 87.7734375 59.57007813 88.546875 60.37890625 89.34375 C65.52407437 94.43644151 70.57240502 99.52495021 75.265625 105.04296875 C78.65887367 108.87183718 82.34670295 112.42126003 86 116 C86.66644531 115.7834375 87.33289063 115.566875 88.01953125 115.34375 C99.10005685 111.99634646 108.47324019 111.68758239 119 117 C123.43476294 119.95381108 126.5946552 123.18931039 129 128 C136.15595346 127.29843593 143.01855181 125.69214979 150 124 C143.46447973 112.14001434 136.25846833 100.71767068 129.04492188 89.26220703 C126.93778734 85.90075387 124.84930381 82.52835171 122.765625 79.15234375 C122.08250244 78.04874512 121.39937988 76.94514648 120.69555664 75.80810547 C119.37597509 73.67527664 118.05994534 71.54024544 116.74780273 69.40283203 C116.15427002 68.44618652 115.5607373 67.48954102 114.94921875 66.50390625 C114.42674561 65.65642822 113.90427246 64.8089502 113.3659668 63.93579102 C112.13831347 61.87208936 112.13831347 61.87208936 110 61 C106.72944759 61.00740782 103.47236252 61.07555266 100.20507812 61.21484375 C95.0021675 61.3217196 91.69680896 60.21230706 87 58 C83.82288569 57.65225896 83.82288569 57.65225896 81.6875 60.23828125 Z M3.3203125 60.06640625 C-0.14069509 61.03956015 -2.45570803 60.74804556 -5.96191406 60.20581055 C-9.8416614 59.72456424 -13.29609495 59.62123741 -17 61 C-21.89675334 65.25352414 -24.62296573 71.55252534 -27.53759766 77.23291016 C-29.93155931 81.7626533 -32.6998703 86.04766044 -35.4375 90.375 C-36.51509792 92.11720656 -37.59060167 93.86071007 -38.6640625 95.60546875 C-40.99841904 99.38818426 -43.34971795 103.15977772 -45.7109375 106.92578125 C-46.61501343 108.37235107 -46.61501343 108.37235107 -47.53735352 109.84814453 C-48.7009952 111.70939509 -49.86803299 113.5685277 -51.03881836 115.42529297 C-51.55839111 116.25818848 -52.07796387 117.09108398 -52.61328125 117.94921875 C-53.07516846 118.68487061 -53.53705566 119.42052246 -54.01293945 120.1784668 C-55.1588104 121.94777395 -55.1588104 121.94777395 -55 124 C-52.44048255 124.70078445 -49.87840298 125.38585196 -47.3125 126.0625 C-46.2306543 126.36124023 -46.2306543 126.36124023 -45.12695312 126.66601562 C-41.12590033 127.70738553 -38.03193906 128.42923213 -34 127 C-31.52951575 124.40110921 -31.52951575 124.40110921 -31 121 C-30.4328125 120.72285156 -29.865625 120.44570312 -29.28125 120.16015625 C-26.19605656 118.5911452 -23.21613865 116.85075124 -20.21875 115.12109375 C-12.92291964 111.43464426 -3.87053817 112.19864089 3.75 114.5 C5.17251255 114.98311747 6.59181005 115.47660196 8 116 C8.53173828 115.35998047 8.53173828 115.35998047 9.07421875 114.70703125 C13.53367831 109.47013564 18.3235361 104.64019255 23.21044922 99.80908203 C27.34484916 95.70358556 31.25057655 91.46146237 35 87 C30.55252851 81.66024583 25.83272963 76.74074949 20.875 71.875 C13.45631998 64.59244255 13.45631998 64.59244255 10.6953125 61.0078125 C10.13585937 60.34523437 9.57640625 59.68265625 9 59 C5.98388369 58.81512227 5.98388369 58.81512227 3.3203125 60.06640625 Z M46 98 C45.10539062 98.96679688 44.21078125 99.93359375 43.2890625 100.9296875 C42.06817193 102.24522206 40.8467831 103.56029432 39.625 104.875 C38.99102295 105.55739746 38.3570459 106.23979492 37.70385742 106.94287109 C33.2518102 111.71352374 28.70090069 116.33695228 23.98828125 120.8515625 C20.93590412 124.07019185 20.93590412 124.07019185 19 128 C20.32 130.64 21.64 133.28 23 136 C39.17 136 55.34 136 72 136 C72.99 133.03 73.98 130.06 75 127 C74.19163696 126.19949219 74.19163696 126.19949219 73.36694336 125.3828125 C70.88773764 122.92460574 68.41260401 120.46233634 65.9375 118 C65.08994141 117.16082031 64.24238281 116.32164063 63.36914062 115.45703125 C58.87623411 110.98147186 54.54042688 106.46320802 50.47485352 101.59375 C48.89297901 99.75970012 48.89297901 99.75970012 46 98 Z M-109 127 C-103.57499556 134.90500646 -96.84261278 141.34012762 -90 148 C-87.39087031 144.86123928 -85.18146738 141.78217539 -83.25 138.1875 C-82.82203125 137.39730469 -82.3940625 136.60710937 -81.953125 135.79296875 C-81.63859375 135.20128906 -81.3240625 134.60960937 -81 134 C-87.27838311 131.74775463 -93.5252319 130.11589635 -100.0625 128.8125 C-101.3609082 128.54663086 -101.3609082 128.54663086 -102.68554688 128.27539062 C-104.7893625 127.84532887 -106.89454212 127.42194832 -109 127 Z M195.5546875 128.3125 C194.47832031 128.58320313 193.40195312 128.85390625 192.29296875 129.1328125 C191.16503906 129.41898438 190.03710938 129.70515625 188.875 130 C187.73933594 130.28617188 186.60367187 130.57234375 185.43359375 130.8671875 C182.62185935 131.57602811 179.81069606 132.28705528 177 133 C177 137.34231086 177.65743662 138.59589615 179.875 142.1875 C180.40867187 143.06792969 180.94234375 143.94835937 181.4921875 144.85546875 C182.82355264 147.10946691 182.82355264 147.10946691 185 148 C185.37769531 147.55011719 185.75539063 147.10023438 186.14453125 146.63671875 C190.34546022 141.72743642 194.78101693 137.15041094 199.44262695 132.68237305 C200.66470797 131.49104158 201.83707626 130.24914413 203 129 C203 128.34 203 127.68 203 127 C200.3690599 127 198.10793024 127.66747025 195.5546875 128.3125 Z M-65 138 C-67.64361091 141.14776437 -69.66416008 144.75120948 -71.8125 148.25 C-72.74739258 149.70212891 -72.74739258 149.70212891 -73.70117188 151.18359375 C-74.28060547 152.11816406 -74.86003906 153.05273438 -75.45703125 154.015625 C-75.99303955 154.87446289 -76.52904785 155.73330078 -77.08129883 156.61816406 C-78.27603668 158.95919823 -78.27603668 158.95919823 -77.25366211 161.20678711 C-75.89925415 163.14410482 -74.46915014 164.69014885 -72.75 166.3125 C-69.25449813 169.69808043 -66.12222532 173.26855998 -63 177 C-57.97817848 174.28442256 -53.79268884 170.64863889 -49.4375 167 C-47.93683647 165.74923347 -46.4355548 164.49920813 -44.93359375 163.25 C-44.27415771 162.69828125 -43.61472168 162.1465625 -42.93530273 161.578125 C-40.99889391 159.99909805 -38.99888052 158.49916039 -37 157 C-37.99 150.565 -37.99 150.565 -39 144 C-42.76969811 142.99554436 -46.54063512 141.996257 -50.3125 141 C-51.38435547 140.71382812 -52.45621094 140.42765625 -53.56054688 140.1328125 C-54.58857422 139.86210937 -55.61660156 139.59140625 -56.67578125 139.3125 C-57.62364502 139.06113281 -58.57150879 138.80976563 -59.5480957 138.55078125 C-62.06900889 137.89041382 -62.06900889 137.89041382 -65 138 Z M146 140.375 C145.08476562 140.59671875 144.16953125 140.8184375 143.2265625 141.046875 C142.34742188 141.26601562 141.46828125 141.48515625 140.5625 141.7109375 C139.75941406 141.90993652 138.95632813 142.10893555 138.12890625 142.31396484 C135.738215 142.97752901 135.738215 142.97752901 133 145 C132.19663887 147.87759068 132.19663887 147.87759068 131.8125 151.125 C131.65394531 152.22070312 131.49539063 153.31640625 131.33203125 154.4453125 C131.22246094 155.28835937 131.11289062 156.13140625 131 157 C143.39287354 167.1346049 143.39287354 167.1346049 156 177 C161.96260189 172.17917294 166.96679794 166.77505724 172 161 C170.48165063 155.37581833 167.70258905 150.95590622 164.5625 146.125 C164.07201172 145.34125 163.58152344 144.5575 163.07617188 143.75 C162.59857422 143.01007813 162.12097656 142.27015625 161.62890625 141.5078125 C160.9803064 140.49678467 160.9803064 140.49678467 160.31860352 139.46533203 C159.88346436 138.98177246 159.4483252 138.49821289 159 138 C154.49719055 138 150.35138321 139.28408984 146 140.375 Z M23 151 C21.02 155.455 21.02 155.455 19 160 C28.24 169.24 37.48 178.48 47 188 C52.95832937 182.91118324 52.95832937 182.91118324 58.1875 177.375 C63.52781444 171.31402029 69.24732146 165.6650743 75 160 C74.01 157.03 73.02 154.06 72 151 C55.83 151 39.66 151 23 151 Z M-27 169 C-28.89541442 170.090655 -28.89541442 170.090655 -30.765625 171.7890625 C-31.49136719 172.40136719 -32.21710938 173.01367188 -32.96484375 173.64453125 C-34.09599609 174.62486328 -34.09599609 174.62486328 -35.25 175.625 C-36.73252517 176.89019164 -38.21687915 178.15324371 -39.703125 179.4140625 C-40.42048828 180.02282227 -41.13785156 180.63158203 -41.87695312 181.25878906 C-44.81535829 183.66871382 -47.87348957 185.84121899 -51 188 C-47.84738259 193.18785144 -44.03566256 197.16390549 -39.6875 201.375 C-31.47219645 209.4489481 -31.47219645 209.4489481 -28.0625 213.4375 C-27.54558594 214.0253125 -27.02867187 214.613125 -26.49609375 215.21875 C-25 217 -25 217 -23.41015625 219.21875 C-20.35425686 223.01689191 -17.91828541 225.08743601 -13.02734375 225.65234375 C-10.03189649 225.85953412 -7.05623719 225.88322162 -4.0546875 225.875 C-0.676359 225.88116202 1.6976633 226.50584101 4.8125 227.875 C6.85932389 228.55296616 6.85932389 228.55296616 9 228 C12.92362364 224.70958363 16.05091838 220.90811098 19.30419922 216.97119141 C22.26688982 213.52737282 25.51271475 210.37082363 28.75 207.1875 C29.9531729 205.99353785 31.15630216 204.79953172 32.359375 203.60546875 C33.23078125 202.74566406 34.1021875 201.88585937 35 201 C33.56593018 196.2766748 30.79353907 193.40078501 27.3359375 190.04296875 C26.78386627 189.49514236 26.23179504 188.94731598 25.66299438 188.38288879 C23.90727578 186.64389177 22.14139137 184.91564842 20.375 183.1875 C19.179 182.00655523 17.98367961 180.82492177 16.7890625 179.64257812 C13.86718538 176.75368368 10.93614884 173.87438519 8 171 C7.34773438 171.21148682 6.69546875 171.42297363 6.0234375 171.64086914 C-5.08448371 175.12950184 -13.41002165 175.00361406 -24 170 C-24.99 169.67 -25.98 169.34 -27 169 Z M114.10546875 172.02734375 C104.98747193 176.23955379 95.14442779 173.87965905 86 171 C83.47483195 173.49565251 80.95570627 175.99732451 78.4375 178.5 C77.73302734 179.19609375 77.02855469 179.8921875 76.30273438 180.609375 C72.18685916 184.70628305 68.25017713 188.89311466 64.47265625 193.3046875 C62.73937606 195.30002862 60.90632672 197.16992634 59 199 C60.62779213 203.04256217 63.48334272 205.84055384 66.48828125 208.89453125 C67.02849411 209.44614426 67.56870697 209.99775726 68.12528992 210.56608582 C69.26648909 211.72612721 70.41058464 212.88332548 71.55737305 214.0378418 C73.31021754 215.81019214 75.04060624 217.60270989 76.77148438 219.39648438 C77.88409189 220.52214429 78.99798194 221.64653829 80.11328125 222.76953125 C80.6280452 223.3089888 81.14280914 223.84844635 81.673172 224.4042511 C83.30775228 226.08621792 83.30775228 226.08621792 86 228 C88.6766298 228.03241081 88.6766298 228.03241081 91 227 C94.2076136 225.93079547 96.62005231 226.11159582 99.95263672 226.32104492 C106.90709224 226.82459805 106.90709224 226.82459805 113.2890625 224.609375 C114.92653708 222.69355653 114.92653708 222.69355653 116.3359375 220.48046875 C118.37707033 217.43793507 120.87349322 215.02457872 123.5 212.5 C127.25737221 208.80398555 130.81102488 205.00233822 134.23046875 200.9921875 C137.63922859 197.15451086 141.33459329 193.59060249 145 190 C143.63823979 185.91471937 140.81498285 184.25711909 137.5 181.75 C136.86940674 181.26490967 136.23881348 180.77981934 135.58911133 180.2800293 C134.32131528 179.305038 133.05155891 178.33259005 131.77978516 177.36279297 C129.39602184 175.53753003 127.04334705 173.67358111 124.6875 171.8125 C120.01604473 168.12541793 119.22846995 169.34569772 114.10546875 172.02734375 Z M-88 175 C-89.22780805 176.59520757 -89.22780805 176.59520757 -90.3984375 178.70703125 C-90.8723291 179.51269531 -91.3462207 180.31835938 -91.83447266 181.1484375 C-92.59703369 182.46714844 -92.59703369 182.46714844 -93.375 183.8125 C-94.4511119 185.64311196 -95.52929437 187.47250807 -96.609375 189.30078125 C-97.16560547 190.24260254 -97.72183594 191.18442383 -98.29492188 192.15478516 C-101.48063748 197.47069719 -104.82350093 202.68697776 -108.16552734 207.90551758 C-108.63941895 208.64825928 -109.11331055 209.39100098 -109.6015625 210.15625 C-110.01744629 210.80400391 -110.43333008 211.45175781 -110.86181641 212.11914062 C-112.0206947 214.03419819 -113.02669683 215.98518975 -114 218 C-110.63743102 216.49609874 -108.06970558 214.54747098 -105.25 212.1875 C-104.28964844 211.39085937 -103.32929687 210.59421875 -102.33984375 209.7734375 C-101.81116699 209.33354492 -101.28249023 208.89365234 -100.73779297 208.44042969 C-97.44543366 205.71144403 -94.12859981 203.0125425 -90.8125 200.3125 C-90.15991211 199.77842529 -89.50732422 199.24435059 -88.83496094 198.6940918 C-84.31055508 195.00819246 -79.69269964 191.46885476 -75 188 C-78.38917771 183.33812969 -81.67786116 178.84190119 -86 175 C-86.66 175 -87.32 175 -88 175 Z M177.90625 177.08203125 C176.71515625 178.43361328 176.71515625 178.43361328 175.5 179.8125 C174.7059375 180.70582031 173.911875 181.59914062 173.09375 182.51953125 C170.91248118 185.00906487 170.91248118 185.00906487 169 188 C169.88300781 188.68964844 170.76601563 189.37929687 171.67578125 190.08984375 C180.23851752 196.78986403 188.71892907 203.5765966 197.0546875 210.55859375 C198.04726563 211.38488281 199.03984375 212.21117187 200.0625 213.0625 C200.96097656 213.81660156 201.85945313 214.57070312 202.78515625 215.34765625 C204.80662634 217.19932081 204.80662634 217.19932081 207 217 C205.71971239 213.58777805 204.24484729 210.56792296 202.3125 207.48046875 C201.51839722 206.20465942 201.51839722 206.20465942 200.70825195 204.90307617 C199.86266724 203.55886597 199.86266724 203.55886597 199 202.1875 C197.82680257 200.31251273 196.65362573 198.43751258 195.48046875 196.5625 C194.60334229 195.16451172 194.60334229 195.16451172 193.70849609 193.73828125 C192.1182524 191.18952827 190.54872979 188.62957133 188.98828125 186.0625 C188.53388672 185.3197583 188.07949219 184.5770166 187.61132812 183.81176758 C186.75973348 182.41896213 185.91318794 181.02305416 185.07226562 179.6237793 C184.10207025 178.04803822 183.05843541 176.51787796 182 175 C179.74424032 174.76496013 179.74424032 174.76496013 177.90625 177.08203125 Z M-64 199 C-65.6251777 200.32045688 -67.25034816 201.64092266 -68.87548828 202.96142578 C-70.31124161 204.12791349 -71.7471172 205.29425074 -73.18310547 206.46044922 C-76.83581724 209.42723555 -80.48689426 212.39596133 -84.1328125 215.37109375 C-91.11543422 221.0644461 -98.1380589 226.69433808 -105.24316406 232.23413086 C-109.63357641 235.67320167 -113.87553637 239.24699427 -118 243 C-117.67 244.65 -117.34 246.3 -117 248 C-90.93 248 -64.86 248 -38 248 C-31.7018576 237.63978318 -31.7018576 237.63978318 -32 232 C-34.190877 229.35912876 -34.190877 229.35912876 -37.0625 226.75 C-38.08656234 225.76762977 -39.10869932 224.78324854 -40.12890625 223.796875 C-40.62664551 223.31798828 -41.12438477 222.83910156 -41.63720703 222.34570312 C-43.35979471 220.64471723 -44.93786609 218.84858879 -46.5 217 C-51.02052268 211.70045521 -56.0429458 206.88601361 -61 202 C-62.00066472 201.00066516 -63.00081548 200.00081481 -64 199 Z M155.48535156 201.15820312 C154.9590918 201.69380859 154.43283203 202.22941406 153.890625 202.78125 C153.01144409 203.66719849 153.01144409 203.66719849 152.11450195 204.57104492 C151.49921631 205.2076001 150.88393066 205.84415527 150.25 206.5 C149.61602295 207.14493408 148.9820459 207.78986816 148.32885742 208.4543457 C144.68219078 212.18744628 141.16633149 215.99443646 137.796875 219.98046875 C133.75263247 224.52584569 129.33569846 228.73486445 125 233 C126.00528369 235.01507538 127.01422008 237.02795722 128.03515625 239.03515625 C128.54369141 240.03869141 128.54369141 240.03869141 129.0625 241.0625 C129.57490234 242.06990234 129.57490234 242.06990234 130.09765625 243.09765625 C131 245 131 245 132 248 C158.07 248 184.14 248 211 248 C211.33 246.02 211.66 244.04 212 242 C211.18660156 241.36835938 210.37320313 240.73671875 209.53515625 240.0859375 C201.94503712 234.16865546 194.46847875 228.12886199 187.05249023 221.99487305 C182.51953172 218.24647499 177.96171037 214.53522467 173.34765625 210.88671875 C171.56550467 209.4544738 169.8064237 207.99346487 168.05859375 206.51953125 C167.06988281 205.68808594 166.08117187 204.85664063 165.0625 204 C164.16660156 203.236875 163.27070313 202.47375 162.34765625 201.6875 C159.73185488 199.80725675 158.20686064 199.07715234 155.48535156 201.15820312 Z M44.23168945 213.52539062 C43.18307739 214.58016602 43.18307739 214.58016602 42.11328125 215.65625 C41.33919922 216.43226563 40.56511719 217.20828125 39.76757812 218.0078125 C38.95740234 218.83023438 38.14722656 219.65265625 37.3125 220.5 C36.52166016 221.29148438 35.73082031 222.08296875 34.91601562 222.8984375 C25.26034168 231.21559258 25.26034168 231.21559258 20 242 C20.99 243.98 21.98 245.96 23 248 C39.17 248 55.34 248 72 248 C72.99 245.03 73.98 242.06 75 239 C71.19776083 235.14844023 67.38908788 231.30340607 63.57421875 227.46435547 C62.27651486 226.15657422 60.98060901 224.84700631 59.68652344 223.53564453 C57.82953602 221.65448499 55.96624438 219.77977878 54.1015625 217.90625 C53.52129303 217.31565796 52.94102356 216.72506592 52.34317017 216.11657715 C50.93290372 214.70591649 49.47082858 213.34739684 48 212 C45.86317976 211.78227282 45.86317976 211.78227282 44.23168945 213.52539062 Z M-117 264 C-117.33 265.65 -117.66 267.3 -118 269 C-116.49998475 271.08557102 -116.49998475 271.08557102 -114.1875 272.8125 C-113.34703125 273.50601562 -112.5065625 274.19953125 -111.640625 274.9140625 C-110.76921875 275.60242188 -109.8978125 276.29078125 -109 277 C-108.25234375 277.60585938 -107.5046875 278.21171875 -106.734375 278.8359375 C-105.14028291 280.12097092 -103.53952151 281.39775756 -101.93359375 282.66796875 C-98.2657772 285.58366313 -94.6335369 288.54178201 -91 291.5 C-89.61854507 292.62116212 -88.23703568 293.74225714 -86.85546875 294.86328125 C-84.53653958 296.74624038 -82.22758035 298.63893925 -79.92578125 300.54296875 C-79.06339844 301.25066406 -78.20101562 301.95835937 -77.3125 302.6875 C-76.22388672 303.59048828 -76.22388672 303.59048828 -75.11328125 304.51171875 C-72.83364847 306.11715329 -70.61976337 307.06863054 -68 308 C-61.10228176 301.26117144 -61.10228176 301.26117144 -54.625 294.125 C-51.06411495 289.95222062 -47.18503853 286.12824706 -43.26220703 282.29931641 C-41.82308572 280.88467475 -40.41092499 279.44276533 -39 278 C-38.15824219 277.24074219 -37.31648438 276.48148437 -36.44921875 275.69921875 C-35.73185547 274.36310547 -35.73185547 274.36310547 -35 273 C-35.99 270.03 -36.98 267.06 -38 264 C-64.07 264 -90.14 264 -117 264 Z M23 264 C19.78434096 269.20248189 19.78434096 269.20248189 20.10742188 272.13793945 C21.20508337 274.42783667 22.52247577 275.95842548 24.28125 277.79296875 C25.29155273 278.85656616 25.29155273 278.85656616 26.32226562 279.94165039 C27.40024414 281.05334595 27.40024414 281.05334595 28.5 282.1875 C29.22380859 282.94474365 29.94761719 283.7019873 30.69335938 284.48217773 C35.72199 289.72746265 40.79700966 294.92708442 46 300 C50.10108886 298.37843976 52.83148167 295.4232297 55.859375 292.3359375 C56.40861633 291.78386627 56.95785767 291.23179504 57.52374268 290.66299438 C59.27059293 288.90498185 61.01034601 287.1401311 62.75 285.375 C63.93573591 284.1792292 65.1219288 282.98391135 66.30859375 281.7890625 C69.21105085 278.86459747 72.1071641 275.93398126 75 273 C74.01 270.03 73.02 267.06 72 264 C55.83 264 39.66 264 23 264 Z M132 264 C131.01 266.97 130.02 269.94 129 273 C129.49628906 273.4846875 129.99257813 273.969375 130.50390625 274.46875 C133.89981304 277.81954987 137.21549201 281.18178433 140.3125 284.8125 C143.22250243 288.20195363 146.3215572 291.3645527 149.5 294.5 C153.88234735 298.83399041 158.03757061 303.28024622 162 308 C166.24382531 307.49236539 168.81036813 304.85174369 171.875 302.125 C176.41045225 298.1863516 181.00149944 294.36666609 185.75 290.6875 C192.10391444 285.75464097 198.31282591 280.65726506 204.49121094 275.5065918 C205.17989258 274.93465088 205.86857422 274.36270996 206.578125 273.7734375 C207.49706543 273.00652588 207.49706543 273.00652588 208.43457031 272.22412109 C210 271 210 271 212 270 C211.505 267.03 211.505 267.03 211 264 C184.93 264 158.86 264 132 264 Z M-26.34765625 286.2734375 C-27.26009286 287.30068849 -28.16456243 288.33505131 -29.0625 289.375 C-30.04618845 290.48353869 -31.031905 291.59028065 -32.01953125 292.6953125 C-32.51662598 293.25250977 -33.0137207 293.80970703 -33.52587891 294.38378906 C-35.68785902 296.75416143 -37.96263582 299.00116723 -40.25 301.25 C-45.91687187 306.85390663 -51.04246618 312.76552565 -56 319 C-50.4364156 324.19182415 -44.73030223 329.11095944 -38.75 333.8125 C-38.17233887 334.26794189 -37.59467773 334.72338379 -36.99951172 335.19262695 C-33.4345996 337.97084567 -29.78953978 340.53679915 -26 343 C-25.46890625 342.72285156 -24.9378125 342.44570313 -24.390625 342.16015625 C-23.33101562 341.61681641 -23.33101562 341.61681641 -22.25 341.0625 C-21.55390625 340.70285156 -20.8578125 340.34320313 -20.140625 339.97265625 C-16.20200095 338.18302598 -12.68918694 337.81829847 -8.375 337.75 C-7.41335937 337.72421875 -6.45171875 337.6984375 -5.4609375 337.671875 C-0.75413204 338.11811841 3.52413583 339.52400003 8 341 C11.6941012 337.38007754 15.37822232 333.75039419 19.0534668 330.11132812 C20.30500541 328.8748722 21.55922385 327.64112268 22.81616211 326.41015625 C24.62285013 324.63987325 26.41966403 322.86006781 28.21484375 321.078125 C28.77840073 320.53005188 29.3419577 319.98197876 29.92259216 319.41729736 C33.58291557 315.78376833 33.58291557 315.78376833 35 311 C33.13435417 308.45402066 33.13435417 308.45402066 30.42578125 305.97265625 C29.70541939 305.266464 29.70541939 305.266464 28.97050476 304.54600525 C27.42917241 303.03930502 25.87177512 301.55060389 24.3125 300.0625 C22.77456116 298.57474019 21.24018422 297.08344608 19.70805359 295.58970642 C18.30803307 294.22799923 16.89899169 292.87558497 15.48950195 291.52368164 C13.13040087 289.13219121 11.04479085 286.66201862 9 284 C7.845 284.33 6.69 284.66 5.5 285 C0.924216 286.02007924 -3.57811838 286.22440065 -8.25 286.25 C-8.93513672 286.25902344 -9.62027344 286.26804687 -10.32617188 286.27734375 C-14.36304798 286.25371326 -17.33494785 285.63757649 -21 284 C-24.18548592 283.65216984 -24.18548592 283.65216984 -26.34765625 286.2734375 Z M83.1809082 286.47851562 C82.0464748 287.61342476 80.92028209 288.75660841 79.80078125 289.90625 C79.20573288 290.50554321 78.61068451 291.10483643 77.99760437 291.72229004 C76.09542948 293.64128092 74.20393795 295.57043112 72.3125 297.5 C71.02608 298.80146301 69.7389789 300.10225318 68.45117188 301.40234375 C65.29281998 304.59380369 62.14401203 307.79441498 59 311 C60.62084653 314.44401787 62.42536245 316.60671518 65.1875 319.25 C68.08579644 322.0789592 70.8698581 324.92020855 73.5 328 C77.42240621 332.57767877 81.69595611 336.78379374 86 341 C86.58265625 340.7834375 87.1653125 340.566875 87.765625 340.34375 C98.96673541 336.53959929 108.23464305 337.19610416 119 342 C119.99 342.495 119.99 342.495 121 343 C128.77711833 336.9718588 136.4592485 330.8707255 143.91088867 324.44213867 C147.80268142 321.09865929 147.80268142 321.09865929 150 320 C148.67528341 317.08991472 147.21448259 314.93151975 145.0234375 312.609375 C144.43892822 311.98619385 143.85441895 311.3630127 143.25219727 310.72094727 C142.63272217 310.07053467 142.01324707 309.42012207 141.375 308.75 C140.74198975 308.07831787 140.10897949 307.40663574 139.45678711 306.71459961 C135.62392735 302.6617935 131.72928117 298.68278372 127.7421875 294.78125 C125.19001273 292.17185158 122.86303297 289.38244619 120.54296875 286.56640625 C118.97779021 284.7404064 118.97779021 284.7404064 116 284 C115.11441406 284.30421875 114.22882813 284.6084375 113.31640625 284.921875 C109.46006865 286.17552538 105.94340617 286.2948841 101.9375 286.25 C101.24333984 286.25773437 100.54917969 286.26546875 99.83398438 286.2734375 C95.7395582 286.25788412 92.7147684 285.66866602 89 284 C85.7498898 283.66985763 85.7498898 283.66985763 83.1809082 286.47851562 Z M-114 294 C-109.46401116 302.17812105 -104.71349007 310.1991077 -99.75 318.125 C-99.24307617 318.94202393 -98.73615234 319.75904785 -98.21386719 320.60083008 C-97.48151855 321.76134888 -97.48151855 321.76134888 -96.734375 322.9453125 C-96.30350586 323.63125488 -95.87263672 324.31719727 -95.42871094 325.02392578 C-93.73497658 327.47665665 -93.73497658 327.47665665 -90 331 C-86.7 327.7 -83.4 324.4 -80 321 C-84.18303871 316.80184701 -84.18303871 316.80184701 -88.6015625 312.984375 C-89.2517334 312.45932373 -89.9019043 311.93427246 -90.57177734 311.39331055 C-91.24934082 310.85101807 -91.9269043 310.30872559 -92.625 309.75 C-94.04713733 308.60579472 -95.46901099 307.46126165 -96.890625 306.31640625 C-97.58607422 305.75711426 -98.28152344 305.19782227 -98.99804688 304.62158203 C-100.81899102 303.14661727 -102.62440841 301.65576708 -104.421875 300.15234375 C-105.39640625 299.33894531 -106.3709375 298.52554687 -107.375 297.6875 C-108.22835937 296.96949219 -109.08171875 296.25148438 -109.9609375 295.51171875 C-111.84471722 293.80148042 -111.84471722 293.80148042 -114 294 Z M198.75 300.3125 C193.14768061 305.22371963 187.41993317 309.89397487 181.44433594 314.3449707 C178.46860587 316.61398652 176.29112215 318.42458482 175 322 C176.45217676 323.50596108 177.91192861 325.00462104 179.375 326.5 C180.59316406 327.75296875 180.59316406 327.75296875 181.8359375 329.03125 C183.7589659 331.22431286 183.7589659 331.22431286 186 331 C187.27710788 329.32239534 187.27710788 329.32239534 188.50390625 327.1171875 C188.99342773 326.28558105 189.48294922 325.45397461 189.98730469 324.59716797 C190.76702637 323.24969482 190.76702637 323.24969482 191.5625 321.875 C192.63998786 320.04052628 193.7194302 318.20719918 194.80078125 316.375 C195.60636475 315.00988281 195.60636475 315.00988281 196.42822266 313.6171875 C199.29794279 308.83877809 202.37188649 304.19839801 205.453125 299.5546875 C207.17265127 297.21261571 207.17265127 297.21261571 207 295 C203.52343466 295 201.25013328 298.09226266 198.75 300.3125 Z M47 324 C37.76 333.24 28.52 342.48 19 352 C20.32 354.97 21.64 357.94 23 361 C39.17 361 55.34 361 72 361 C72.99 358.03 73.98 355.06 75 352 C74.19163696 351.19949219 74.19163696 351.19949219 73.36694336 350.3828125 C70.88773764 347.92460574 68.41260401 345.46233634 65.9375 343 C65.08994141 342.16082031 64.24238281 341.32164062 63.36914062 340.45703125 C58.84395743 335.9493198 54.48049976 331.39320638 50.37719727 326.49609375 C49.05072808 324.87737228 49.05072808 324.87737228 47 324 Z M-74.625 337.125 C-75.24890625 337.69476563 -75.8728125 338.26453125 -76.515625 338.8515625 C-80.07246749 342.23298775 -80.07246749 342.23298775 -81.265625 346.83203125 C-79.42321064 351.44375361 -76.85555503 355.42829901 -74.125 359.5625 C-73.0439659 361.23027113 -71.96322793 362.89823426 -70.8828125 364.56640625 C-70.37911133 365.33742676 -69.87541016 366.10844727 -69.35644531 366.90283203 C-67.84737345 369.23597229 -66.40280629 371.60149555 -65 374 C-56.15301274 372.60213923 -47.61638292 370.39537771 -39 368 C-37.00531545 363.46867887 -36.17712685 359.92200052 -37 355 C-40.83052057 349.86567661 -46.49790383 346.27999656 -51.68798828 342.63818359 C-54.46628239 340.66961406 -57.13048792 338.57907544 -59.80053711 336.4675293 C-67.4966507 330.38780962 -67.66978488 330.43169674 -74.625 337.125 Z M153.8125 336.8125 C146.28604058 342.97679309 138.67197951 349.01825348 131 355 C131.14745267 356.94095858 131.34451752 358.87819234 131.5625 360.8125 C131.66691406 361.89144531 131.77132813 362.97039062 131.87890625 364.08203125 C132.75837809 367.29351988 132.75837809 367.29351988 136.078125 368.74609375 C137.3744734 369.19685998 138.68302916 369.61361008 140 370 C140.66249756 370.20278564 141.32499512 370.40557129 142.00756836 370.61450195 C144.0579827 371.20746693 146.11586933 371.73646902 148.1875 372.25 C149.23454102 372.5284375 149.23454102 372.5284375 150.30273438 372.8125 C155.21307831 374.06861042 155.21307831 374.06861042 160 373 C161.58471396 371.12923856 161.58471396 371.12923856 162.875 368.73828125 C163.38546875 367.86623047 163.8959375 366.99417969 164.421875 366.09570312 C164.94265625 365.17724609 165.4634375 364.25878906 166 363.3125 C167.04043123 361.51621094 168.08207042 359.72062092 169.125 357.92578125 C169.61484375 357.07709473 170.1046875 356.2284082 170.609375 355.35400391 C172.30220905 352.48843054 174.11046314 349.73892001 176 347 C174.33830526 342.69422496 171.16919694 339.90988145 167.9375 336.75 C167.38255859 336.19570313 166.82761719 335.64140625 166.25585938 335.0703125 C160.39541762 329.27411432 159.62270146 332.02310007 153.8125 336.8125 Z M-95.45532227 359.43359375 C-96.37655884 360.42552734 -96.37655884 360.42552734 -97.31640625 361.4375 C-97.99896484 362.16839844 -98.68152344 362.89929688 -99.38476562 363.65234375 C-100.10341797 364.42707031 -100.82207031 365.20179688 -101.5625 366 C-102.9583373 367.50120805 -104.35547135 369.00121143 -105.75390625 370.5 C-106.45016113 371.24636719 -107.14641602 371.99273437 -107.86376953 372.76171875 C-110.61676444 375.64622815 -113.46937493 378.42055235 -116.35131836 381.17578125 C-118.02044689 383.0226239 -119.00550845 384.72974022 -120 387 C-111.7615125 386.35792249 -103.93960698 384.42994133 -95.9375 382.4375 C-94.58150769 382.10429849 -93.22538867 381.77161218 -91.86914062 381.43945312 C-88.57814899 380.63134486 -85.2885272 379.81806854 -82 379 C-82 375.60987284 -82.62789244 374.60173121 -84.37109375 371.76953125 C-85.10875977 370.56586914 -85.10875977 370.56586914 -85.86132812 369.33789062 C-86.38146484 368.50451172 -86.90160156 367.67113281 -87.4375 366.8125 C-87.95376953 365.96751953 -88.47003906 365.12253906 -89.00195312 364.25195312 C-90.94132007 361.08680905 -90.94132007 361.08680905 -93 358 C-94.22173748 357.88303858 -94.22173748 357.88303858 -95.45532227 359.43359375 Z M187 358 C185.12914904 360.9271848 183.28131993 363.86822725 181.4375 366.8125 C180.90447266 367.64587891 180.37144531 368.47925781 179.82226562 369.33789062 C179.32275391 370.14033203 178.82324219 370.94277344 178.30859375 371.76953125 C177.84251709 372.50792236 177.37644043 373.24631348 176.89624023 374.00708008 C175.66866523 376.13517059 175.66866523 376.13517059 177 379 C179.75096726 379.91443782 182.37376891 380.62620085 185.19140625 381.26171875 C186.01124496 381.45723831 186.83108368 381.65275787 187.67576599 381.85420227 C190.30196348 382.47754231 192.93198422 383.08267075 195.5625 383.6875 C197.34077546 384.10623171 199.11877465 384.52613859 200.89648438 384.94726562 C205.26123071 385.97852103 209.62949082 386.99346041 214 388 C213.27590751 384.72196319 212.52678409 383.16858252 210.0859375 380.828125 C209.49288818 380.24981934 208.89983887 379.67151367 208.28881836 379.07568359 C207.6572583 378.47320801 207.02569824 377.87073242 206.375 377.25 C205.09051341 375.99937965 203.80794094 374.74679018 202.52734375 373.4921875 C201.60671143 372.59064941 201.60671143 372.59064941 200.66748047 371.67089844 C198.12842319 369.12663665 195.79969821 366.43065543 193.52734375 363.6484375 C191.54217402 361.5058758 189.3080641 359.78261949 187 358 Z M23 376 C21.02 380.455 21.02 380.455 19 385 C28.24 394.24 37.48 403.48 47 413 C52.95832937 407.91118324 52.95832937 407.91118324 58.1875 402.375 C63.52781444 396.31402029 69.24732146 390.6650743 75 385 C74.01 382.03 73.02 379.06 72 376 C55.83 376 39.66 376 23 376 Z M-47.25 386 C-48.36761719 386.28617187 -48.36761719 386.28617187 -49.5078125 386.578125 C-51.33963905 387.04782412 -53.169972 387.52334154 -55 388 C-53.24281616 393.10616952 -50.41303915 397.53399946 -47.625 402.125 C-46.82642578 403.44745728 -46.82642578 403.44745728 -46.01171875 404.79663086 C-41.9221958 411.54253952 -37.79451666 418.26828805 -33.49145508 424.88061523 C-30.8380412 428.97284912 -28.40351401 433.07319707 -26.17578125 437.4140625 C-22.09302334 446.06164768 -22.09302334 446.06164768 -14.9609375 451.78417969 C-11.17610655 452.36241775 -7.68343202 452.03451758 -3.9140625 451.484375 C-0.02201124 451.00272395 1.37375892 451.23693136 4.8125 452.8125 C6.85505725 453.51667195 6.85505725 453.51667195 9 453 C12.9263438 449.71296002 16.05103745 445.90796689 19.30419922 441.97119141 C22.26688982 438.52737282 25.51271475 435.37082363 28.75 432.1875 C29.9531729 430.99353785 31.15630216 429.79953172 32.359375 428.60546875 C33.23078125 427.74566406 34.1021875 426.88585937 35 426 C33.56593018 421.2766748 30.79353907 418.40078501 27.3359375 415.04296875 C26.78386627 414.49514236 26.23179504 413.94731598 25.66299438 413.38288879 C23.90727578 411.64389177 22.14139137 409.91564842 20.375 408.1875 C19.179 407.00655523 17.98367961 405.82492177 16.7890625 404.64257812 C13.86718538 401.75368368 10.93614884 398.87438519 8 396 C7.34773438 396.21148682 6.69546875 396.42297363 6.0234375 396.64086914 C-3.8483965 399.74128751 -12.22351648 400.49223979 -21.87109375 396.15625 C-24.51133096 394.72228631 -26.74283426 392.97502002 -29 391 C-29.66 391 -30.32 391 -31 391 C-31.28875 390.401875 -31.5775 389.80375 -31.875 389.1875 C-33.04742026 386.80672208 -33.04742026 386.80672208 -35 384 C-39.33930796 384 -43.09198176 384.91274435 -47.25 386 Z M129 384 C127.48741526 385.58358801 127.48741526 385.58358801 126.25 387.6875 C121.72178632 394.13193509 115.7465534 397.55572733 108 399 C100.14081622 399.68875476 93.47319212 398.35497331 86 396 C83.47483195 398.49565251 80.95570627 400.99732451 78.4375 403.5 C77.73302734 404.19609375 77.02855469 404.8921875 76.30273438 405.609375 C72.18685916 409.70628305 68.25017713 413.89311466 64.47265625 418.3046875 C62.73937606 420.30002862 60.90632672 422.16992634 59 424 C60.62779213 428.04256217 63.48334272 430.84055384 66.48828125 433.89453125 C67.02849411 434.44614426 67.56870697 434.99775726 68.12528992 435.56608582 C69.26648909 436.72612721 70.41058464 437.88332548 71.55737305 439.0378418 C73.31021754 440.81019214 75.04060624 442.60270989 76.77148438 444.39648438 C77.88409189 445.52214429 78.99798194 446.64653829 80.11328125 447.76953125 C80.6280452 448.3089888 81.14280914 448.84844635 81.673172 449.4042511 C83.30775228 451.08621792 83.30775228 451.08621792 86 453 C88.6766298 453.03241081 88.6766298 453.03241081 91 452 C94.2354489 450.92151703 96.59911459 451.1627421 99.95239258 451.42480469 C106.94624167 451.9480719 106.94624167 451.9480719 113.25390625 449.48046875 C115.14919865 446.76815808 116.54070971 443.97225563 118 441 C119.29913123 438.76760012 120.64175136 436.56462516 121.98681641 434.35961914 C123.54308509 431.80425508 125.07122499 429.23343856 126.59765625 426.66015625 C130.89166365 419.46956939 135.36023208 412.38853407 139.8359375 405.31005859 C143.41092309 399.63332745 146.82056749 393.90807052 150 388 C147.25124318 387.32781493 144.50119274 386.66207565 141.75 386 C140.97269531 385.80921875 140.19539063 385.6184375 139.39453125 385.421875 C138.26337891 385.15117187 138.26337891 385.15117187 137.109375 384.875 C136.41811523 384.70742188 135.72685547 384.53984375 135.01464844 384.3671875 C132.68544376 383.88046329 132.68544376 383.88046329 129 384 Z M-85.23828125 395.08984375 C-86.11904831 395.31321915 -86.99981537 395.53659454 -87.90727234 395.76673889 C-90.71166257 396.48040126 -93.51200403 397.20872228 -96.3125 397.9375 C-98.2165483 398.42480042 -100.12084284 398.9111398 -102.02539062 399.39648438 C-106.68652128 400.58653549 -111.34407636 401.78974462 -116 403 C-116 405.64 -116 408.28 -116 411 C-104.9077251 417.37129233 -93.79092791 423.69607291 -82.625 429.9375 C-74.30391007 434.58903695 -65.98836154 439.24993865 -57.6875 443.9375 C-56.73351318 444.47584473 -55.77952637 445.01418945 -54.79663086 445.56884766 C-48.82276394 448.94737608 -42.88941657 452.38200139 -37.01171875 455.92578125 C-35.08605491 457.1570109 -35.08605491 457.1570109 -33 457 C-34.29751591 453.54594161 -35.8044157 450.46886764 -37.73046875 447.32421875 C-38.27888428 446.42541992 -38.8272998 445.52662109 -39.39233398 444.60058594 C-40.28094116 443.1586084 -40.28094116 443.1586084 -41.1875 441.6875 C-41.80246338 440.68364258 -42.41742676 439.67978516 -43.05102539 438.64550781 C-49.39010533 428.31918742 -55.76909037 418.0141285 -62.26123047 407.78320312 C-63.47737403 405.83655378 -64.66147808 403.86968669 -65.82080078 401.88867188 C-66.41747559 400.88900391 -67.01415039 399.88933594 -67.62890625 398.859375 C-68.15685791 397.95155273 -68.68480957 397.04373047 -69.22875977 396.10839844 C-70.82928289 393.88691969 -70.82928289 393.88691969 -73.13330078 393.06567383 C-77.37309412 392.96854349 -81.15643211 394.01355815 -85.23828125 395.08984375 Z M166 393 C163.94183089 395.4029508 163.94183089 395.4029508 162.0625 398.6875 C161.6819043 399.30616943 161.30130859 399.92483887 160.90917969 400.56225586 C160.05938215 401.94578412 159.215825 403.33315833 158.37744141 404.72363281 C156.92964724 407.11626535 155.45818964 409.49292966 153.98046875 411.8671875 C150.63984225 417.236307 147.3192219 422.61763001 144 428 C141.64730439 431.81341048 139.2928184 435.62570906 136.9375 439.4375 C136.40157227 440.30705322 135.86564453 441.17660645 135.31347656 442.07250977 C133.14368453 445.58411056 130.97097431 449.07301252 128.62890625 452.47265625 C126.81941929 454.77904947 126.81941929 454.77904947 127 457 C133.01603755 455.36836253 138.08160733 452.2798636 143.4375 449.1875 C145.51164995 448.00248374 147.58587064 446.81759129 149.66015625 445.6328125 C150.71605957 445.02727539 151.77196289 444.42173828 152.85986328 443.79785156 C157.68756016 441.03380555 162.5309807 438.29780757 167.375 435.5625 C168.30562256 435.03624023 169.23624512 434.50998047 170.19506836 433.96777344 C178.67162392 429.17696 187.1662832 424.4186388 195.66552734 419.66821289 C200.7909784 416.80256275 205.90814142 413.92495809 211 411 C210.505 407.04 210.505 407.04 210 403 C204.37813954 401.56981087 198.75475968 400.14581848 193.12988281 398.72753906 C191.21669201 398.24421348 189.30392703 397.75919906 187.39160156 397.27246094 C184.64237986 396.57302239 181.8916827 395.8796769 179.140625 395.1875 C178.28631897 394.96876221 177.43201294 394.75002441 176.55181885 394.5246582 C175.35102692 394.22434692 175.35102692 394.22434692 174.12597656 393.91796875 C173.42426331 393.74031982 172.72255005 393.5626709 171.99957275 393.37963867 C169.68424901 392.87564814 169.68424901 392.87564814 166 393 Z M44.13989258 438.6171875 C43.39892334 439.36226563 42.6579541 440.10734375 41.89453125 440.875 C40.66573242 442.10669922 40.66573242 442.10669922 39.41210938 443.36328125 C38.55423828 444.23339844 37.69636719 445.10351562 36.8125 446 C35.97396484 446.83917969 35.13542969 447.67835938 34.27148438 448.54296875 C31.82446092 451.0071844 29.40798287 453.49767546 27 456 C26.27087402 456.73734375 25.54174805 457.4746875 24.79052734 458.234375 C24.14164551 458.92015625 23.49276367 459.6059375 22.82421875 460.3125 C22.25147217 460.90675781 21.67872559 461.50101562 21.08862305 462.11328125 C19.76377185 463.9973386 19.76377185 463.9973386 20.19848633 466.48046875 C21.02888663 469.31614507 21.02888663 469.31614507 23 473 C39.17 473 55.34 473 72 473 C72.99 470.03 73.98 467.06 75 464 C71.19776083 460.14844023 67.38908788 456.30340607 63.57421875 452.46435547 C62.27651486 451.15657422 60.98060901 449.84700631 59.68652344 448.53564453 C57.82953602 446.65448499 55.96624438 444.77977878 54.1015625 442.90625 C53.52129303 442.31565796 52.94102356 441.72506592 52.34317017 441.11657715 C50.93290372 439.70591649 49.47082858 438.34739684 48 437 C45.84075318 436.78129665 45.84075318 436.78129665 44.13989258 438.6171875 Z " fill="#000000" transform="translate(178,0)"/>
<path d="M0 0 C4.98407691 1.99891424 8.85943465 4.95418947 11.33984375 9.83984375 C12.47632399 13.55862228 12.4634919 17.37798801 12.65234375 21.2421875 C13.09717451 24.770845 14.37938267 26.6329908 17 29 C13.68090651 33.39291786 11.20112114 35.8227865 6 38 C5.360625 37.195625 4.72125 36.39125 4.0625 35.5625 C0.91009703 32.92477507 0.47597705 32.70318822 -3.3125 32.5 C-8.518042 32.16163977 -12.14083164 30.52813361 -16 27 C-19.46394792 22.34562491 -20.84500432 17.80940471 -20 12 C-16.24370408 3.28539347 -9.83411789 -2.0783445 0 0 Z " fill="#FBCD59" transform="translate(284,465)"/>
<path d="M0 0 C3 1 3 1 4.5625 2.9375 C7.25398322 5.21490888 8.47790283 5.43466599 11.875 6 C17.83845407 7.01729511 21.29218894 9.11241935 25.375 13.625 C27.57702931 18.19844549 27.80465156 22.00953476 27 27 C24.78757561 31.42484878 22.05200384 34.19476657 18 37 C13.64749493 38.45083502 9.41886245 38.85342929 5.0625 37.31640625 C-0.22936889 34.56782779 -3.10694028 30.67917916 -5 25 C-5.06816045 21.93277988 -4.99764067 18.879674 -4.9375 15.8125 C-4.86344089 12.91788889 -4.86344089 12.91788889 -6 10 C-6.99 9.67 -7.98 9.34 -9 9 C-8.06725891 7.87105124 -7.12859878 6.74699124 -6.1875 5.625 C-5.66542969 4.99851562 -5.14335937 4.37203125 -4.60546875 3.7265625 C-3 2 -3 2 0 0 Z " fill="#C4EBF9" transform="translate(159,9)"/>
<path d="M0 0 C3.83084349 2.61193874 6.65161815 5.67823629 8.75 9.875 C9.29360446 14.82982094 9.31437074 18.74625852 7.0625 23.25 C3.45303527 27.34723024 0.30439387 30.32115953 -5.23046875 31.18359375 C-10.93169768 31.51658588 -14.22399596 30.35000542 -18.5859375 26.6484375 C-22.04447055 22.96258303 -23.07313863 19.28989095 -23.6875 14.375 C-22.95762587 8.53600694 -20.51944795 4.6170733 -16.0625 0.9375 C-10.85687472 -2.44727352 -5.68127586 -1.96659549 0 0 Z " fill="#C3EAF8" transform="translate(177.25,466.125)"/>
<path d="M0 0 C3.83084349 2.61193874 6.65161815 5.67823629 8.75 9.875 C9.29360446 14.82982094 9.31437074 18.74625852 7.0625 23.25 C3.45303527 27.34723024 0.30439387 30.32115953 -5.23046875 31.18359375 C-10.93169768 31.51658588 -14.22399596 30.35000542 -18.5859375 26.6484375 C-22.04447055 22.96258303 -23.07313863 19.28989095 -23.6875 14.375 C-22.95762587 8.53600694 -20.51944795 4.6170733 -16.0625 0.9375 C-10.85687472 -2.44727352 -5.68127586 -1.96659549 0 0 Z " fill="#C3EAF8" transform="translate(177.25,241.125)"/>
<path d="M0 0 C4.55697637 2.34358785 7.87796676 5.68189833 10.02734375 10.3515625 C10.9239852 16.62805264 9.61718935 21.12891616 6.02734375 26.3515625 C1.398076 30.75501231 -2.47821637 31.72576331 -8.6953125 31.625 C-13.65160979 31.02990427 -16.75518169 27.88051987 -19.84765625 24.2265625 C-22.76625159 19.83450155 -22.88318604 15.45221549 -21.97265625 10.3515625 C-17.54650528 1.49926057 -9.69729149 -3.18762453 0 0 Z " fill="#F77D84" transform="translate(36.97265625,240.6484375)"/>
<path d="M0 0 C3.83084349 2.61193874 6.65161815 5.67823629 8.75 9.875 C9.29360446 14.82982094 9.31437074 18.74625852 7.0625 23.25 C3.45303527 27.34723024 0.30439387 30.32115953 -5.23046875 31.18359375 C-10.93169768 31.51658588 -14.22399596 30.35000542 -18.5859375 26.6484375 C-22.04447055 22.96258303 -23.07313863 19.28989095 -23.6875 14.375 C-22.95762587 8.53600694 -20.51944795 4.6170733 -16.0625 0.9375 C-10.85687472 -2.44727352 -5.68127586 -1.96659549 0 0 Z " fill="#F9CC59" transform="translate(287.25,16.125)"/>
<path d="M0 0 C5.67476113 1.96434039 9.31400331 5.62800662 12 11 C12.54360446 15.95482094 12.56437074 19.87125852 10.3125 24.375 C6.03332938 29.23243692 2.80145748 31.76654521 -3.75 32.3125 C-8.20612207 32.22255992 -11.62573045 30.92382094 -15 28 C-18.09803372 24.39345065 -19.80562511 21.20944379 -20.5625 16.5 C-19.63851263 10.75074528 -17.65811969 6.53968257 -13.375 2.5625 C-8.85905172 -0.4085186 -5.32512444 -0.4857377 0 0 Z " fill="#F9CC59" transform="translate(284,240)"/>
<path d="M0 0 C4.98669007 2.49334503 8.49675474 5.99350949 11 11 C11.59057744 16.67862925 11.29370905 21.16922672 8 26 C4.11499468 29.91684962 0.87321442 31.80950362 -4.6875 32.375 C-9.7382154 32.28198498 -13.30746536 30.38210031 -17 27 C-19.71020523 23.36101658 -20.84585024 19.95915405 -21.5625 15.5 C-20.59924303 9.50640107 -17.70418405 5.58528749 -13.3125 1.5 C-8.76685573 -0.55840495 -4.91112629 -0.79185913 0 0 Z " fill="#6CD29F" transform="translate(424,240)"/>
<path d="M0 0 C4.81351557 2.01013853 7.6067766 4.65981482 10.1171875 9.22265625 C11.96171939 13.91938097 11.51831011 17.79187135 9.8359375 22.55859375 C7.01393003 26.79160496 3.88364758 29.73019039 -1.0390625 31.37109375 C-5.70600772 31.91334834 -9.11677298 31.84093935 -13.3515625 29.68359375 C-18.27425019 25.44779272 -20.80450645 22.18576638 -21.3515625 15.62109375 C-21.26162242 11.16497168 -19.96288344 7.7453633 -17.0390625 4.37109375 C-11.76703519 -0.15758914 -6.91633115 -2.13319792 0 0 Z " fill="#F87D84" transform="translate(36.0390625,93.62890625)"/>
<path d="M0 0 C4.2507153 2.09308541 6.4091062 4.9240197 8.26953125 9.23828125 C9.72490669 14.00290322 9.46540519 17.90985323 7.73828125 22.63671875 C4.75925581 27.15661942 1.13467654 29.89846295 -4.07421875 31.38671875 C-9.50344891 32.10378688 -12.86889533 31.03149446 -17.2734375 28.00390625 C-21.37384532 24.32154435 -22.86316596 20.13544183 -23.51171875 14.76171875 C-22.82207425 9.44160404 -21.06488569 6.03278907 -17.01171875 2.57421875 C-11.77949639 -1.32211705 -6.329165 -1.87133504 0 0 Z " fill="#6DD3A0" transform="translate(426.07421875,387.61328125)"/>
<path d="M0 0 C5.67476113 1.96434039 9.31400331 5.62800662 12 11 C12.54099901 17.27558851 11.75004792 21.82791556 8 27 C2.80204084 31.13715117 -1.35806438 32.65330514 -8 32 C-12.67226829 30.13457945 -16.033537 27.6062164 -18.5 23.1875 C-20.31553879 18.88370047 -20.59877676 15.64051991 -20 11 C-15.42948886 2.1975341 -9.49429397 -0.86603357 0 0 Z " fill="#F87D84" transform="translate(35,387)"/>
<path d="M0 0 C5.12093367 2.32338657 8.36529731 5.15637586 10.921875 10.26953125 C11.73205128 16.67125205 10.87673315 22.07071178 6.921875 27.26953125 C3.34988543 30.6330758 -0.30943546 31.53705296 -5.140625 31.76953125 C-9.82097624 31.55646518 -12.53797571 30.47252347 -16.078125 27.26953125 C-20.10422288 21.93767189 -21.73889669 17.98737681 -21.078125 11.26953125 C-17.42252675 2.48298119 -9.82184345 -3.4524149 0 0 Z " fill="#6DD3A0" transform="translate(424.078125,93.73046875)"/>
<path d="M0 0 C4.29760913 2.19511501 6.84107193 4.98885375 8.875 9.30078125 C9.87665059 14.86665412 9.00023015 19.67733401 6.1875 24.5703125 C3.1769609 28.53956495 -0.03156231 29.91646359 -4.7421875 30.78125 C-10.13876648 31.17739776 -13.47652766 30.61987276 -17.6875 27.11328125 C-21.74682765 22.96263948 -22.9474132 20.1654426 -23.5 14.36328125 C-23.32833404 8.65538794 -20.23907886 5.55072339 -16.5625 1.42578125 C-11.87560528 -2.24998136 -5.43144556 -1.78718521 0 0 Z " fill="#C4EBF9" transform="translate(177.125,128.69921875)"/>
<path d="M0 0 C4.59465871 2.27752479 7.24181681 5.59100883 8.875 10.3359375 C9.66415296 16.55051705 8.65246818 21.2543434 4.875 26.3359375 C0.06655375 30.26119974 -4.21029967 31.14348875 -10.3984375 30.921875 C-15.19398838 29.89131249 -18.07777383 27.04560414 -21.125 23.3359375 C-23.57527048 19.35424797 -23.8469547 14.92034984 -23.125 10.3359375 C-18.0707125 0.42175817 -10.80035934 -3.3751123 0 0 Z " fill="#C5EBFA" transform="translate(177.125,353.6640625)"/>
<path d="M0 0 C4.59465871 2.27752479 7.24181681 5.59100883 8.875 10.3359375 C9.66415296 16.55051705 8.65246818 21.2543434 4.875 26.3359375 C0.06655375 30.26119974 -4.21029967 31.14348875 -10.3984375 30.921875 C-15.19398838 29.89131249 -18.07777383 27.04560414 -21.125 23.3359375 C-23.57527048 19.35424797 -23.8469547 14.92034984 -23.125 10.3359375 C-18.0707125 0.42175817 -10.80035934 -3.3751123 0 0 Z " fill="#FBCE59" transform="translate(287.125,128.6640625)"/>
<path d="M0 0 C4.16518169 1.29158845 7.04403077 3.61824287 9.4375 7.25 C11.73248467 11.90951434 11.8458019 16.25239501 10.33984375 21.14453125 C8.5350551 25.35570476 6.40573056 28.3294443 2.1171875 30.36328125 C-2.33821123 31.70318899 -6.44295058 31.97930862 -11 31 C-15.12118398 28.61264747 -17.96031594 25.58031977 -20.5625 21.625 C-21.47245348 16.1652791 -20.8356478 11.58176191 -18.25 6.6875 C-12.68732659 0.04319565 -8.56726781 -1.19228835 0 0 Z " fill="#FBCE59" transform="translate(285,353)"/>
</svg>
